<svg xmlns="http://www.w3.org/2000/svg" xmlns:xlink="http://www.w3.org/1999/xlink" width="500" zoomAndPan="magnify" viewBox="0 0 375 374.999991" height="500" preserveAspectRatio="xMidYMid meet" version="1.0"><defs><g/></defs><rect x="-37.5" width="450" fill="#ffffff" y="-37.499999" height="449.999989" fill-opacity="1"/><rect x="-37.5" width="450" fill="#f2f1ee" y="-37.499999" height="449.999989" fill-opacity="1"/><g fill="#000000" fill-opacity="1"><g transform="translate(137.155645, 183.384912)"><g><path d="M 40.871094 -48.03125 C 50.871094 -50.128906 59.019531 -56.304688 59.019531 -67.414062 C 59.019531 -81.617188 44.203125 -87.171875 25.683594 -87.171875 L 4.320312 -87.171875 L 4.320312 0 L 33.585938 0 C 52.597656 -0.125 67.414062 -4.320312 67.414062 -24.199219 C 67.414062 -41.734375 56.425781 -46.917969 40.871094 -48.03125 Z M 57.785156 -24.199219 C 57.785156 -1.976562 43.710938 -0.988281 32.597656 -0.988281 L 14.074219 -0.988281 L 14.074219 -68.773438 C 15.0625 -63.957031 16.546875 -59.761719 18.769531 -56.425781 C 22.347656 -50.746094 27.78125 -47.414062 33.585938 -47.414062 C 44.328125 -47.414062 57.785156 -46.300781 57.785156 -24.199219 Z M 49.390625 -67.414062 C 49.390625 -53.957031 41.855469 -48.402344 33.585938 -48.402344 C 28.027344 -48.402344 23.210938 -51.488281 19.753906 -57.042969 C 16.175781 -62.230469 14.074219 -69.636719 14.074219 -78.15625 L 14.074219 -86.308594 L 25.683594 -86.308594 C 37.535156 -86.308594 49.390625 -81.492188 49.390625 -67.414062 Z M 49.390625 -67.414062 "/></g></g></g><g fill="#000000" fill-opacity="1"><g transform="translate(165.982214, 215.308498)"><g><path d="M 65.441406 -80.257812 C 66.304688 -82.480469 70.996094 -87.046875 74.207031 -87.296875 L 60.253906 -87.296875 C 62.601562 -87.046875 66.550781 -84.703125 63.957031 -79.640625 L 43.585938 -40.128906 L 34.449219 -55.316406 L 15.433594 -87.296875 L 4.320312 -87.296875 L 34.449219 -36.671875 L 34.449219 0 L 44.203125 0 L 44.203125 -39.265625 Z M 65.441406 -80.257812 "/></g></g></g></svg>