<svg xmlns="http://www.w3.org/2000/svg" xmlns:xlink="http://www.w3.org/1999/xlink" width="500" zoomAndPan="magnify" viewBox="0 0 375 374.999991" height="500" preserveAspectRatio="xMidYMid meet" version="1.0"><defs><clipPath id="8627cdba0b"><path d="M 141 71.125 L 255 71.125 L 255 309 L 141 309 Z M 141 71.125 " clip-rule="nonzero"/></clipPath></defs><g clip-path="url(#8627cdba0b)"><path fill="#000000" d="M 170.683594 254.914062 C 174.859375 249.421875 179.566406 244.847656 184.710938 237.167969 C 182.625 238.382812 181.507812 239.015625 179.613281 239.9375 C 187.1875 233.324219 194.757812 223.988281 197.382812 214.601562 C 198.691406 209.984375 198.644531 194.957031 195.972656 188.246094 C 193.984375 190.628906 191.894531 193.109375 189.855469 195.492188 C 191.992188 192.085938 194.90625 186.007812 196.117188 182.117188 C 193.011719 186.496094 189.324219 189.996094 185.535156 193.109375 C 189.808594 188.101562 193.644531 182.75 194.855469 180.222656 C 191.167969 163.347656 201.652344 149.683594 206.945312 135.09375 L 200.003906 136.894531 C 203.398438 135.046875 207.089844 133.101562 208.738281 131.011719 C 214.660156 117.101562 219.417969 86.320312 205.339844 71.488281 C 208.449219 79.902344 207.867188 89.871094 203.011719 97.652344 C 203.398438 100.035156 203.59375 101.542969 203.644531 104.507812 L 201.75 98.964844 C 199.710938 106.0625 193.109375 114.960938 189.761719 120.457031 C 189.808594 122.984375 189.761719 125.175781 189.515625 128.09375 L 188.691406 123.425781 C 179.421875 136.699219 166.992188 148.078125 158.886719 161.015625 C 150.390625 174.53125 148.644531 187.710938 154.90625 207.601562 C 149.519531 198.019531 148.304688 186.347656 149.035156 180.171875 C 143.789062 189.121094 141.800781 201.8125 143.597656 212.023438 L 141.507812 209.984375 C 140.878906 220.050781 145.78125 229.726562 152.480469 239.988281 L 147.578125 235.804688 C 152.429688 244.023438 159.226562 251.074219 163.351562 254.964844 C 160.488281 231.960938 161.75 207.988281 167.042969 187.078125 C 170.390625 173.996094 175.292969 162.082031 181.3125 150.167969 C 184.226562 144.382812 202.285156 115.304688 205.339844 108.300781 C 202.378906 117.34375 184.855469 146.472656 181.605469 153.332031 C 170.003906 177.9375 164.617188 199.480469 164.082031 230.019531 C 163.9375 238.140625 164.566406 248.691406 165.34375 257.007812 L 158.011719 257.007812 C 157.429688 257.007812 156.898438 257.492188 156.898438 258.125 C 156.898438 258.707031 157.382812 259.242188 158.011719 259.242188 L 174.953125 259.242188 C 175.539062 259.242188 176.070312 258.757812 176.070312 258.125 C 176.070312 257.542969 175.585938 257.007812 174.953125 257.007812 L 167.480469 257.007812 C 166.75 250.199219 166.167969 240.179688 166.363281 229.289062 C 166.703125 211.296875 168.839844 191.359375 172.964844 182.703125 C 168.886719 198.117188 167.089844 228.996094 170.683594 254.914062 Z M 166.652344 301.890625 C 188.402344 308.019531 214.46875 307.191406 236.84375 302.425781 C 262.378906 296.980469 244.515625 292.457031 227.574219 290.21875 C 221.070312 289.34375 194.417969 285.550781 201.214844 279.328125 C 208.253906 272.8125 232.574219 280.203125 237.621094 271.402344 C 241.359375 264.980469 241.117188 264.980469 250.679688 262.648438 C 252.039062 262.308594 252.574219 262.015625 252.960938 261.238281 C 252.425781 262.550781 251.066406 262.695312 248.933594 263.28125 C 239.710938 265.757812 241.894531 268.53125 239.03125 273.054688 C 234.273438 280.640625 206.605469 276.894531 204.90625 280.882812 C 203.109375 285.164062 233.933594 288.421875 239.078125 289.394531 C 255.242188 292.503906 260.921875 298.730469 243.59375 303.542969 C 219.902344 310.011719 189.128906 309.527344 166.652344 301.890625 Z M 154.761719 281.757812 C 159.761719 286.863281 164.46875 292.457031 165.78125 300.625 L 165.925781 300.625 L 165.925781 281.5625 C 165.003906 281.320312 164.324219 280.496094 164.324219 279.472656 C 164.324219 278.304688 165.292969 277.332031 166.460938 277.332031 C 167.625 277.332031 168.59375 278.304688 168.59375 279.472656 C 168.59375 280.445312 167.917969 281.320312 166.992188 281.5625 L 166.992188 300.578125 L 167.140625 300.578125 C 168.449219 292.40625 173.109375 286.816406 178.160156 281.710938 C 175.828125 275.921875 174.226562 268.921875 173.0625 261.335938 L 159.859375 261.335938 C 158.742188 268.96875 157.089844 275.921875 154.761719 281.757812 Z M 154.761719 281.757812 " fill-opacity="1" fill-rule="evenodd"/></g></svg>